<?xml version="1.0" encoding="utf-8"?>
<svg xmlns="http://www.w3.org/2000/svg" width="40.64mm" height="20.32mm" viewBox="50 0 1600 800">
 <g id="breadboard">
  <rect x="50" y="50" width="1600" height="700" rx="25" ry="25" fill="#00aa44" stroke="#00772f" stroke-width="5"/>
  <g fill="#d4af37" transform="rotate(45 850 400)">
   <rect x="791" y="341" width="118" height="118" rx="8" ry="8"/>
   <rect x="756" y="223" width="12" height="77"/>
   <rect x="756" y="500" width="12" height="77"/>
   <rect x="673" y="306" width="77" height="12"/>
   <rect x="950" y="306" width="77" height="12"/>
   <rect x="782" y="223" width="12" height="77"/>
   <rect x="782" y="500" width="12" height="77"/>
   <rect x="673" y="332" width="77" height="12"/>
   <rect x="950" y="332" width="77" height="12"/>
   <rect x="806" y="223" width="12" height="77"/>
   <rect x="806" y="500" width="12" height="77"/>
   <rect x="673" y="356" width="77" height="12"/>
   <rect x="950" y="356" width="77" height="12"/>
   <rect x="832" y="223" width="12" height="77"/>
   <rect x="832" y="500" width="12" height="77"/>
   <rect x="673" y="382" width="77" height="12"/>
   <rect x="950" y="382" width="77" height="12"/>
   <rect x="856" y="223" width="12" height="77"/>
   <rect x="856" y="500" width="12" height="77"/>
   <rect x="673" y="406" width="77" height="12"/>
   <rect x="950" y="406" width="77" height="12"/>
   <rect x="882" y="223" width="12" height="77"/>
   <rect x="882" y="500" width="12" height="77"/>
   <rect x="673" y="432" width="77" height="12"/>
   <rect x="950" y="432" width="77" height="12"/>
   <rect x="906" y="223" width="12" height="77"/>
   <rect x="906" y="500" width="12" height="77"/>
   <rect x="673" y="456" width="77" height="12"/>
   <rect x="950" y="456" width="77" height="12"/>
   <rect x="932" y="223" width="12" height="77"/>
   <rect x="932" y="500" width="12" height="77"/>
   <rect x="673" y="482" width="77" height="12"/>
   <rect x="950" y="482" width="77" height="12"/>
  </g>
  <circle id="connector32pin" connectorname="RESET_N" cx="100" cy="100" r="35.4" fill="#d4af37" stroke="#8a6d00" stroke-width="4"/>
  <circle cx="100" cy="100" r="19.7" fill="#0b2c18"/>
  <text x="100" y="176" font-size="56" fill="#ffffff" text-anchor="middle" dominant-baseline="central" font-family="DroidSans" transform="rotate(-90 100 176)">32</text>
  <circle id="connector31pin" connectorname="AVDD33" cx="200" cy="100" r="35.4" fill="#d4af37" stroke="#8a6d00" stroke-width="4"/>
  <circle cx="200" cy="100" r="19.7" fill="#0b2c18"/>
  <text x="200" y="176" font-size="56" fill="#ffffff" text-anchor="middle" dominant-baseline="central" font-family="DroidSans" transform="rotate(-90 200 176)">31</text>
  <circle id="connector30pin" connectorname="MDI_TP" cx="300" cy="100" r="35.4" fill="#d4af37" stroke="#8a6d00" stroke-width="4"/>
  <circle cx="300" cy="100" r="19.7" fill="#0b2c18"/>
  <text x="300" y="176" font-size="56" fill="#ffffff" text-anchor="middle" dominant-baseline="central" font-family="DroidSans" transform="rotate(-90 300 176)">30</text>
  <circle id="connector29pin" connectorname="MDI_TN" cx="400" cy="100" r="35.4" fill="#d4af37" stroke="#8a6d00" stroke-width="4"/>
  <circle cx="400" cy="100" r="19.7" fill="#0b2c18"/>
  <text x="400" y="176" font-size="56" fill="#ffffff" text-anchor="middle" dominant-baseline="central" font-family="DroidSans" transform="rotate(-90 400 176)">29</text>
  <circle id="connector28pin" connectorname="REGOUT" cx="500" cy="100" r="35.4" fill="#d4af37" stroke="#8a6d00" stroke-width="4"/>
  <circle cx="500" cy="100" r="19.7" fill="#0b2c18"/>
  <text x="500" y="176" font-size="56" fill="#ffffff" text-anchor="middle" dominant-baseline="central" font-family="DroidSans" transform="rotate(-90 500 176)">28</text>
  <circle id="connector27pin" connectorname="MDI_RP" cx="600" cy="100" r="35.4" fill="#d4af37" stroke="#8a6d00" stroke-width="4"/>
  <circle cx="600" cy="100" r="19.7" fill="#0b2c18"/>
  <text x="600" y="176" font-size="56" fill="#ffffff" text-anchor="middle" dominant-baseline="central" font-family="DroidSans" transform="rotate(-90 600 176)">27</text>
  <circle id="connector26pin" connectorname="MDI_RN" cx="700" cy="100" r="35.4" fill="#d4af37" stroke="#8a6d00" stroke-width="4"/>
  <circle cx="700" cy="100" r="19.7" fill="#0b2c18"/>
  <text x="700" y="176" font-size="56" fill="#ffffff" text-anchor="middle" dominant-baseline="central" font-family="DroidSans" transform="rotate(-90 700 176)">26</text>
  <circle id="connector25pin" connectorname="ISET" cx="800" cy="100" r="35.4" fill="#d4af37" stroke="#8a6d00" stroke-width="4"/>
  <circle cx="800" cy="100" r="19.7" fill="#0b2c18"/>
  <text x="800" y="176" font-size="56" fill="#ffffff" text-anchor="middle" dominant-baseline="central" font-family="DroidSans" transform="rotate(-90 800 176)">25</text>
  <circle id="connector24pin" connectorname="TEST_ON" cx="900" cy="100" r="35.4" fill="#d4af37" stroke="#8a6d00" stroke-width="4"/>
  <circle cx="900" cy="100" r="19.7" fill="#0b2c18"/>
  <text x="900" y="176" font-size="56" fill="#ffffff" text-anchor="middle" dominant-baseline="central" font-family="DroidSans" transform="rotate(-90 900 176)">24</text>
  <circle id="connector23pin" connectorname="MDIO" cx="1000" cy="100" r="35.4" fill="#d4af37" stroke="#8a6d00" stroke-width="4"/>
  <circle cx="1000" cy="100" r="19.7" fill="#0b2c18"/>
  <text x="1000" y="176" font-size="56" fill="#ffffff" text-anchor="middle" dominant-baseline="central" font-family="DroidSans" transform="rotate(-90 1000 176)">23</text>
  <circle id="connector22pin" connectorname="MDC" cx="1100" cy="100" r="35.4" fill="#d4af37" stroke="#8a6d00" stroke-width="4"/>
  <circle cx="1100" cy="100" r="19.7" fill="#0b2c18"/>
  <text x="1100" y="176" font-size="56" fill="#ffffff" text-anchor="middle" dominant-baseline="central" font-family="DroidSans" transform="rotate(-90 1100 176)">22</text>
  <circle id="connector21pin" connectorname="RXER/INTR_32" cx="1200" cy="100" r="35.4" fill="#d4af37" stroke="#8a6d00" stroke-width="4"/>
  <circle cx="1200" cy="100" r="19.7" fill="#0b2c18"/>
  <text x="1200" y="176" font-size="56" fill="#ffffff" text-anchor="middle" dominant-baseline="central" font-family="DroidSans" transform="rotate(-90 1200 176)">21</text>
  <circle id="connector20pin" connectorname="CRS/LEDMOD" cx="1300" cy="100" r="35.4" fill="#d4af37" stroke="#8a6d00" stroke-width="4"/>
  <circle cx="1300" cy="100" r="19.7" fill="#0b2c18"/>
  <text x="1300" y="176" font-size="56" fill="#ffffff" text-anchor="middle" dominant-baseline="central" font-family="DroidSans" transform="rotate(-90 1300 176)">20</text>
  <circle id="connector19pin" connectorname="RXDV/CRS_DV/FX_HEN" cx="1400" cy="100" r="35.4" fill="#d4af37" stroke="#8a6d00" stroke-width="4"/>
  <circle cx="1400" cy="100" r="19.7" fill="#0b2c18"/>
  <text x="1400" y="176" font-size="56" fill="#ffffff" text-anchor="middle" dominant-baseline="central" font-family="DroidSans" transform="rotate(-90 1400 176)">19</text>
  <circle id="connector18pin" connectorname="RXD0" cx="1500" cy="100" r="35.4" fill="#d4af37" stroke="#8a6d00" stroke-width="4"/>
  <circle cx="1500" cy="100" r="19.7" fill="#0b2c18"/>
  <text x="1500" y="176" font-size="56" fill="#ffffff" text-anchor="middle" dominant-baseline="central" font-family="DroidSans" transform="rotate(-90 1500 176)">18</text>
  <circle id="connector17pin" connectorname="RXD1" cx="1600" cy="100" r="35.4" fill="#d4af37" stroke="#8a6d00" stroke-width="4"/>
  <circle cx="1600" cy="100" r="19.7" fill="#0b2c18"/>
  <text x="1600" y="176" font-size="56" fill="#ffffff" text-anchor="middle" dominant-baseline="central" font-family="DroidSans" transform="rotate(-90 1600 176)">17</text>
  <circle id="connector1pin" connectorname="TXER/FXSD" cx="100" cy="700" r="35.4" fill="#d4af37" stroke="#8a6d00" stroke-width="4"/>
  <circle cx="100" cy="700" r="19.7" fill="#0b2c18"/>
  <text x="100" y="624" font-size="56" fill="#ffffff" text-anchor="middle" dominant-baseline="central" font-family="DroidSans" transform="rotate(-90 100 624)">1</text>
  <circle id="connector2pin" connectorname="X1" cx="200" cy="700" r="35.4" fill="#d4af37" stroke="#8a6d00" stroke-width="4"/>
  <circle cx="200" cy="700" r="19.7" fill="#0b2c18"/>
  <text x="200" y="624" font-size="56" fill="#ffffff" text-anchor="middle" dominant-baseline="central" font-family="DroidSans" transform="rotate(-90 200 624)">2</text>
  <circle id="connector3pin" connectorname="X2" cx="300" cy="700" r="35.4" fill="#d4af37" stroke="#8a6d00" stroke-width="4"/>
  <circle cx="300" cy="700" r="19.7" fill="#0b2c18"/>
  <text x="300" y="624" font-size="56" fill="#ffffff" text-anchor="middle" dominant-baseline="central" font-family="DroidSans" transform="rotate(-90 300 624)">3</text>
  <circle id="connector4pin" connectorname="COL/RMII" cx="400" cy="700" r="35.4" fill="#d4af37" stroke="#8a6d00" stroke-width="4"/>
  <circle cx="400" cy="700" r="19.7" fill="#0b2c18"/>
  <text x="400" y="624" font-size="56" fill="#ffffff" text-anchor="middle" dominant-baseline="central" font-family="DroidSans" transform="rotate(-90 400 624)">4</text>
  <circle id="connector5pin" connectorname="TXEN" cx="500" cy="700" r="35.4" fill="#d4af37" stroke="#8a6d00" stroke-width="4"/>
  <circle cx="500" cy="700" r="19.7" fill="#0b2c18"/>
  <text x="500" y="624" font-size="56" fill="#ffffff" text-anchor="middle" dominant-baseline="central" font-family="DroidSans" transform="rotate(-90 500 624)">5</text>
  <circle id="connector6pin" connectorname="TXD3" cx="600" cy="700" r="35.4" fill="#d4af37" stroke="#8a6d00" stroke-width="4"/>
  <circle cx="600" cy="700" r="19.7" fill="#0b2c18"/>
  <text x="600" y="624" font-size="56" fill="#ffffff" text-anchor="middle" dominant-baseline="central" font-family="DroidSans" transform="rotate(-90 600 624)">6</text>
  <circle id="connector7pin" connectorname="TXD2" cx="700" cy="700" r="35.4" fill="#d4af37" stroke="#8a6d00" stroke-width="4"/>
  <circle cx="700" cy="700" r="19.7" fill="#0b2c18"/>
  <text x="700" y="624" font-size="56" fill="#ffffff" text-anchor="middle" dominant-baseline="central" font-family="DroidSans" transform="rotate(-90 700 624)">7</text>
  <circle id="connector8pin" connectorname="TXD1" cx="800" cy="700" r="35.4" fill="#d4af37" stroke="#8a6d00" stroke-width="4"/>
  <circle cx="800" cy="700" r="19.7" fill="#0b2c18"/>
  <text x="800" y="624" font-size="56" fill="#ffffff" text-anchor="middle" dominant-baseline="central" font-family="DroidSans" transform="rotate(-90 800 624)">8</text>
  <circle id="connector9pin" connectorname="TXD0" cx="900" cy="700" r="35.4" fill="#d4af37" stroke="#8a6d00" stroke-width="4"/>
  <circle cx="900" cy="700" r="19.7" fill="#0b2c18"/>
  <text x="900" y="624" font-size="56" fill="#ffffff" text-anchor="middle" dominant-baseline="central" font-family="DroidSans" transform="rotate(-90 900 624)">9</text>
  <circle id="connector10pin" connectorname="TXCLK/50M_CLKI" cx="1000" cy="700" r="35.4" fill="#d4af37" stroke="#8a6d00" stroke-width="4"/>
  <circle cx="1000" cy="700" r="19.7" fill="#0b2c18"/>
  <text x="1000" y="624" font-size="56" fill="#ffffff" text-anchor="middle" dominant-baseline="central" font-family="DroidSans" transform="rotate(-90 1000 624)">10</text>
  <circle id="connector11pin" connectorname="LED0/PHY_AD0" cx="1100" cy="700" r="35.4" fill="#d4af37" stroke="#8a6d00" stroke-width="4"/>
  <circle cx="1100" cy="700" r="19.7" fill="#0b2c18"/>
  <text x="1100" y="624" font-size="56" fill="#ffffff" text-anchor="middle" dominant-baseline="central" font-family="DroidSans" transform="rotate(-90 1100 624)">11</text>
  <circle id="connector12pin" connectorname="LED3/PHY_AD3" cx="1200" cy="700" r="35.4" fill="#d4af37" stroke="#8a6d00" stroke-width="4"/>
  <circle cx="1200" cy="700" r="19.7" fill="#0b2c18"/>
  <text x="1200" y="624" font-size="56" fill="#ffffff" text-anchor="middle" dominant-baseline="central" font-family="DroidSans" transform="rotate(-90 1200 624)">12</text>
  <circle id="connector13pin" connectorname="VDD_IO" cx="1300" cy="700" r="35.4" fill="#d4af37" stroke="#8a6d00" stroke-width="4"/>
  <circle cx="1300" cy="700" r="19.7" fill="#0b2c18"/>
  <text x="1300" y="624" font-size="56" fill="#ffffff" text-anchor="middle" dominant-baseline="central" font-family="DroidSans" transform="rotate(-90 1300 624)">13</text>
  <circle id="connector14pin" connectorname="RXCLK/50M_CLKO" cx="1400" cy="700" r="35.4" fill="#d4af37" stroke="#8a6d00" stroke-width="4"/>
  <circle cx="1400" cy="700" r="19.7" fill="#0b2c18"/>
  <text x="1400" y="624" font-size="56" fill="#ffffff" text-anchor="middle" dominant-baseline="central" font-family="DroidSans" transform="rotate(-90 1400 624)">14</text>
  <circle id="connector15pin" connectorname="RXD3" cx="1500" cy="700" r="35.4" fill="#d4af37" stroke="#8a6d00" stroke-width="4"/>
  <circle cx="1500" cy="700" r="19.7" fill="#0b2c18"/>
  <text x="1500" y="624" font-size="56" fill="#ffffff" text-anchor="middle" dominant-baseline="central" font-family="DroidSans" transform="rotate(-90 1500 624)">15</text>
  <circle id="connector16pin" connectorname="RXD2" cx="1600" cy="700" r="35.4" fill="#d4af37" stroke="#8a6d00" stroke-width="4"/>
  <circle cx="1600" cy="700" r="19.7" fill="#0b2c18"/>
  <text x="1600" y="624" font-size="56" fill="#ffffff" text-anchor="middle" dominant-baseline="central" font-family="DroidSans" transform="rotate(-90 1600 624)">16</text>
  <g id="connector0pin" connectorname="EPAD"><circle cx="850" cy="400" r="10" fill="none" stroke="none"/></g>
  <g fill="#ffffff" font-family="DroidSans" font-size="62" text-anchor="middle">
   <text x="400" y="400">QFN32</text>
   <text x="1230" y="480">0.65MM</text>
  </g>
 </g>
</svg>
