<?xml version="1.0" encoding="utf-8"?>
<svg xmlns="http://www.w3.org/2000/svg" width="40.64mm" height="20.32mm" viewBox="50 0 1600 800">
 <g id="breadboard">
  <rect x="50" y="0" width="1600" height="800" rx="25" ry="25" fill="#00aa44" stroke="#00772f" stroke-width="5"/>
  <g fill="#d4af37">
   <rect x="771" y="321" width="158" height="158" rx="12" ry="12"/>
   <rect x="756" y="223" width="12" height="98"/>
   <rect x="756" y="479" width="12" height="98"/>
   <rect x="673" y="306" width="98" height="12"/>
   <rect x="929" y="306" width="98" height="12"/>
   <rect x="782" y="223" width="12" height="98"/>
   <rect x="782" y="479" width="12" height="98"/>
   <rect x="673" y="332" width="98" height="12"/>
   <rect x="929" y="332" width="98" height="12"/>
   <rect x="806" y="223" width="12" height="98"/>
   <rect x="806" y="479" width="12" height="98"/>
   <rect x="673" y="356" width="98" height="12"/>
   <rect x="929" y="356" width="98" height="12"/>
   <rect x="832" y="223" width="12" height="98"/>
   <rect x="832" y="479" width="12" height="98"/>
   <rect x="673" y="382" width="98" height="12"/>
   <rect x="929" y="382" width="98" height="12"/>
   <rect x="856" y="223" width="12" height="98"/>
   <rect x="856" y="479" width="12" height="98"/>
   <rect x="673" y="406" width="98" height="12"/>
   <rect x="929" y="406" width="98" height="12"/>
   <rect x="882" y="223" width="12" height="98"/>
   <rect x="882" y="479" width="12" height="98"/>
   <rect x="673" y="432" width="98" height="12"/>
   <rect x="929" y="432" width="98" height="12"/>
   <rect x="906" y="223" width="12" height="98"/>
   <rect x="906" y="479" width="12" height="98"/>
   <rect x="673" y="456" width="98" height="12"/>
   <rect x="929" y="456" width="98" height="12"/>
   <rect x="932" y="223" width="12" height="98"/>
   <rect x="932" y="479" width="12" height="98"/>
   <rect x="673" y="482" width="98" height="12"/>
   <rect x="929" y="482" width="98" height="12"/>
  </g>
  <circle id="connector32pin" connectorname="RESET_N" cx="100" cy="100" r="35.4" fill="#d4af37" stroke="#8a6d00" stroke-width="4"/>
  <circle cx="100" cy="100" r="19.7" fill="#0b2c18"/>
  <text x="100" y="54" font-size="56" fill="#ffffff" text-anchor="middle" font-family="DroidSans">32</text>
  <circle id="connector31pin" connectorname="AVDD33" cx="200" cy="100" r="35.4" fill="#d4af37" stroke="#8a6d00" stroke-width="4"/>
  <circle cx="200" cy="100" r="19.7" fill="#0b2c18"/>
  <text x="200" y="54" font-size="56" fill="#ffffff" text-anchor="middle" font-family="DroidSans">31</text>
  <circle id="connector30pin" connectorname="MDI_TP" cx="300" cy="100" r="35.4" fill="#d4af37" stroke="#8a6d00" stroke-width="4"/>
  <circle cx="300" cy="100" r="19.7" fill="#0b2c18"/>
  <text x="300" y="54" font-size="56" fill="#ffffff" text-anchor="middle" font-family="DroidSans">30</text>
  <circle id="connector29pin" connectorname="MDI_TN" cx="400" cy="100" r="35.4" fill="#d4af37" stroke="#8a6d00" stroke-width="4"/>
  <circle cx="400" cy="100" r="19.7" fill="#0b2c18"/>
  <text x="400" y="54" font-size="56" fill="#ffffff" text-anchor="middle" font-family="DroidSans">29</text>
  <circle id="connector28pin" connectorname="REGOUT" cx="500" cy="100" r="35.4" fill="#d4af37" stroke="#8a6d00" stroke-width="4"/>
  <circle cx="500" cy="100" r="19.7" fill="#0b2c18"/>
  <text x="500" y="54" font-size="56" fill="#ffffff" text-anchor="middle" font-family="DroidSans">28</text>
  <circle id="connector27pin" connectorname="MDI_RP" cx="600" cy="100" r="35.4" fill="#d4af37" stroke="#8a6d00" stroke-width="4"/>
  <circle cx="600" cy="100" r="19.7" fill="#0b2c18"/>
  <text x="600" y="54" font-size="56" fill="#ffffff" text-anchor="middle" font-family="DroidSans">27</text>
  <circle id="connector26pin" connectorname="MDI_RN" cx="700" cy="100" r="35.4" fill="#d4af37" stroke="#8a6d00" stroke-width="4"/>
  <circle cx="700" cy="100" r="19.7" fill="#0b2c18"/>
  <text x="700" y="54" font-size="56" fill="#ffffff" text-anchor="middle" font-family="DroidSans">26</text>
  <circle id="connector25pin" connectorname="ISET" cx="800" cy="100" r="35.4" fill="#d4af37" stroke="#8a6d00" stroke-width="4"/>
  <circle cx="800" cy="100" r="19.7" fill="#0b2c18"/>
  <text x="800" y="54" font-size="56" fill="#ffffff" text-anchor="middle" font-family="DroidSans">25</text>
  <circle id="connector24pin" connectorname="TEST_ON" cx="900" cy="100" r="35.4" fill="#d4af37" stroke="#8a6d00" stroke-width="4"/>
  <circle cx="900" cy="100" r="19.7" fill="#0b2c18"/>
  <text x="900" y="54" font-size="56" fill="#ffffff" text-anchor="middle" font-family="DroidSans">24</text>
  <circle id="connector23pin" connectorname="MDIO" cx="1000" cy="100" r="35.4" fill="#d4af37" stroke="#8a6d00" stroke-width="4"/>
  <circle cx="1000" cy="100" r="19.7" fill="#0b2c18"/>
  <text x="1000" y="54" font-size="56" fill="#ffffff" text-anchor="middle" font-family="DroidSans">23</text>
  <circle id="connector22pin" connectorname="MDC" cx="1100" cy="100" r="35.4" fill="#d4af37" stroke="#8a6d00" stroke-width="4"/>
  <circle cx="1100" cy="100" r="19.7" fill="#0b2c18"/>
  <text x="1100" y="54" font-size="56" fill="#ffffff" text-anchor="middle" font-family="DroidSans">22</text>
  <circle id="connector21pin" connectorname="RXER/INTR_32" cx="1200" cy="100" r="35.4" fill="#d4af37" stroke="#8a6d00" stroke-width="4"/>
  <circle cx="1200" cy="100" r="19.7" fill="#0b2c18"/>
  <text x="1200" y="54" font-size="56" fill="#ffffff" text-anchor="middle" font-family="DroidSans">21</text>
  <circle id="connector20pin" connectorname="CRS/LEDMOD" cx="1300" cy="100" r="35.4" fill="#d4af37" stroke="#8a6d00" stroke-width="4"/>
  <circle cx="1300" cy="100" r="19.7" fill="#0b2c18"/>
  <text x="1300" y="54" font-size="56" fill="#ffffff" text-anchor="middle" font-family="DroidSans">20</text>
  <circle id="connector19pin" connectorname="RXDV/CRS_DV/FX_HEN" cx="1400" cy="100" r="35.4" fill="#d4af37" stroke="#8a6d00" stroke-width="4"/>
  <circle cx="1400" cy="100" r="19.7" fill="#0b2c18"/>
  <text x="1400" y="54" font-size="56" fill="#ffffff" text-anchor="middle" font-family="DroidSans">19</text>
  <circle id="connector18pin" connectorname="RXD0" cx="1500" cy="100" r="35.4" fill="#d4af37" stroke="#8a6d00" stroke-width="4"/>
  <circle cx="1500" cy="100" r="19.7" fill="#0b2c18"/>
  <text x="1500" y="54" font-size="56" fill="#ffffff" text-anchor="middle" font-family="DroidSans">18</text>
  <circle id="connector17pin" connectorname="RXD1" cx="1600" cy="100" r="35.4" fill="#d4af37" stroke="#8a6d00" stroke-width="4"/>
  <circle cx="1600" cy="100" r="19.7" fill="#0b2c18"/>
  <text x="1600" y="54" font-size="56" fill="#ffffff" text-anchor="middle" font-family="DroidSans">17</text>
  <circle id="connector1pin" connectorname="TXER/FXSD" cx="100" cy="700" r="35.4" fill="#d4af37" stroke="#8a6d00" stroke-width="4"/>
  <circle cx="100" cy="700" r="19.7" fill="#0b2c18"/>
  <text x="100" y="766" font-size="56" fill="#ffffff" text-anchor="middle" font-family="DroidSans">1</text>
  <circle id="connector2pin" connectorname="X1" cx="200" cy="700" r="35.4" fill="#d4af37" stroke="#8a6d00" stroke-width="4"/>
  <circle cx="200" cy="700" r="19.7" fill="#0b2c18"/>
  <text x="200" y="766" font-size="56" fill="#ffffff" text-anchor="middle" font-family="DroidSans">2</text>
  <circle id="connector3pin" connectorname="X2" cx="300" cy="700" r="35.4" fill="#d4af37" stroke="#8a6d00" stroke-width="4"/>
  <circle cx="300" cy="700" r="19.7" fill="#0b2c18"/>
  <text x="300" y="766" font-size="56" fill="#ffffff" text-anchor="middle" font-family="DroidSans">3</text>
  <circle id="connector4pin" connectorname="COL/RMII" cx="400" cy="700" r="35.4" fill="#d4af37" stroke="#8a6d00" stroke-width="4"/>
  <circle cx="400" cy="700" r="19.7" fill="#0b2c18"/>
  <text x="400" y="766" font-size="56" fill="#ffffff" text-anchor="middle" font-family="DroidSans">4</text>
  <circle id="connector5pin" connectorname="TXEN" cx="500" cy="700" r="35.4" fill="#d4af37" stroke="#8a6d00" stroke-width="4"/>
  <circle cx="500" cy="700" r="19.7" fill="#0b2c18"/>
  <text x="500" y="766" font-size="56" fill="#ffffff" text-anchor="middle" font-family="DroidSans">5</text>
  <circle id="connector6pin" connectorname="TXD3" cx="600" cy="700" r="35.4" fill="#d4af37" stroke="#8a6d00" stroke-width="4"/>
  <circle cx="600" cy="700" r="19.7" fill="#0b2c18"/>
  <text x="600" y="766" font-size="56" fill="#ffffff" text-anchor="middle" font-family="DroidSans">6</text>
  <circle id="connector7pin" connectorname="TXD2" cx="700" cy="700" r="35.4" fill="#d4af37" stroke="#8a6d00" stroke-width="4"/>
  <circle cx="700" cy="700" r="19.7" fill="#0b2c18"/>
  <text x="700" y="766" font-size="56" fill="#ffffff" text-anchor="middle" font-family="DroidSans">7</text>
  <circle id="connector8pin" connectorname="TXD1" cx="800" cy="700" r="35.4" fill="#d4af37" stroke="#8a6d00" stroke-width="4"/>
  <circle cx="800" cy="700" r="19.7" fill="#0b2c18"/>
  <text x="800" y="766" font-size="56" fill="#ffffff" text-anchor="middle" font-family="DroidSans">8</text>
  <circle id="connector9pin" connectorname="TXD0" cx="900" cy="700" r="35.4" fill="#d4af37" stroke="#8a6d00" stroke-width="4"/>
  <circle cx="900" cy="700" r="19.7" fill="#0b2c18"/>
  <text x="900" y="766" font-size="56" fill="#ffffff" text-anchor="middle" font-family="DroidSans">9</text>
  <circle id="connector10pin" connectorname="TXCLK/50M_CLKI" cx="1000" cy="700" r="35.4" fill="#d4af37" stroke="#8a6d00" stroke-width="4"/>
  <circle cx="1000" cy="700" r="19.7" fill="#0b2c18"/>
  <text x="1000" y="766" font-size="56" fill="#ffffff" text-anchor="middle" font-family="DroidSans">10</text>
  <circle id="connector11pin" connectorname="LED0/PHY_AD0" cx="1100" cy="700" r="35.4" fill="#d4af37" stroke="#8a6d00" stroke-width="4"/>
  <circle cx="1100" cy="700" r="19.7" fill="#0b2c18"/>
  <text x="1100" y="766" font-size="56" fill="#ffffff" text-anchor="middle" font-family="DroidSans">11</text>
  <circle id="connector12pin" connectorname="LED3/PHY_AD3" cx="1200" cy="700" r="35.4" fill="#d4af37" stroke="#8a6d00" stroke-width="4"/>
  <circle cx="1200" cy="700" r="19.7" fill="#0b2c18"/>
  <text x="1200" y="766" font-size="56" fill="#ffffff" text-anchor="middle" font-family="DroidSans">12</text>
  <circle id="connector13pin" connectorname="VDD_IO" cx="1300" cy="700" r="35.4" fill="#d4af37" stroke="#8a6d00" stroke-width="4"/>
  <circle cx="1300" cy="700" r="19.7" fill="#0b2c18"/>
  <text x="1300" y="766" font-size="56" fill="#ffffff" text-anchor="middle" font-family="DroidSans">13</text>
  <circle id="connector14pin" connectorname="RXCLK/50M_CLKO" cx="1400" cy="700" r="35.4" fill="#d4af37" stroke="#8a6d00" stroke-width="4"/>
  <circle cx="1400" cy="700" r="19.7" fill="#0b2c18"/>
  <text x="1400" y="766" font-size="56" fill="#ffffff" text-anchor="middle" font-family="DroidSans">14</text>
  <circle id="connector15pin" connectorname="RXD3" cx="1500" cy="700" r="35.4" fill="#d4af37" stroke="#8a6d00" stroke-width="4"/>
  <circle cx="1500" cy="700" r="19.7" fill="#0b2c18"/>
  <text x="1500" y="766" font-size="56" fill="#ffffff" text-anchor="middle" font-family="DroidSans">15</text>
  <circle id="connector16pin" connectorname="RXD2" cx="1600" cy="700" r="35.4" fill="#d4af37" stroke="#8a6d00" stroke-width="4"/>
  <circle cx="1600" cy="700" r="19.7" fill="#0b2c18"/>
  <text x="1600" y="766" font-size="56" fill="#ffffff" text-anchor="middle" font-family="DroidSans">16</text>
  <circle id="connector0pin" connectorname="EPAD" cx="1100" cy="400" r="35.4" fill="#d4af37" stroke="#8a6d00" stroke-width="4"/>
  <circle cx="1100" cy="400" r="19.7" fill="#0b2c18"/>
  <text x="1100" y="354" font-size="56" fill="#ffffff" text-anchor="middle" font-family="DroidSans">EP</text>
  <g fill="#ffffff" font-family="DroidSans" font-size="62" text-anchor="middle">
   <text x="400" y="330">QFP32</text>
   <text x="400" y="480">QFN32</text>
   <text x="1230" y="480">0.65MM</text>
  </g>
 </g>
</svg>
