<?xml version="1.0" encoding="UTF-8"?>
<svg xmlns="http://www.w3.org/2000/svg" width="4.2mm" height="4.2mm" viewBox="0 0 4.2 4.2">
  <g id="icon">
    <rect x="0.100" y="0.100" width="4.00" height="4.00" fill="#303030" stroke="none"/>
    <rect x="0.800" y="0" width="0.20" height="0.100" fill="#f7bf13" stroke="none"/>
    <rect x="0.800" y="4.100" width="0.20" height="0.100" fill="#f7bf13" stroke="none"/>
    <rect x="0" y="0.800" width="0.100" height="0.20" fill="#f7bf13" stroke="none"/>
    <rect x="4.100" y="0.800" width="0.100" height="0.20" fill="#f7bf13" stroke="none"/>
    <rect x="1.200" y="0" width="0.20" height="0.100" fill="#f7bf13" stroke="none"/>
    <rect x="1.200" y="4.100" width="0.20" height="0.100" fill="#f7bf13" stroke="none"/>
    <rect x="0" y="1.200" width="0.100" height="0.20" fill="#f7bf13" stroke="none"/>
    <rect x="4.100" y="1.200" width="0.100" height="0.20" fill="#f7bf13" stroke="none"/>
    <rect x="1.600" y="0" width="0.20" height="0.100" fill="#f7bf13" stroke="none"/>
    <rect x="1.600" y="4.100" width="0.20" height="0.100" fill="#f7bf13" stroke="none"/>
    <rect x="0" y="1.600" width="0.100" height="0.20" fill="#f7bf13" stroke="none"/>
    <rect x="4.100" y="1.600" width="0.100" height="0.20" fill="#f7bf13" stroke="none"/>
    <rect x="2.000" y="0" width="0.20" height="0.100" fill="#f7bf13" stroke="none"/>
    <rect x="2.000" y="4.100" width="0.20" height="0.100" fill="#f7bf13" stroke="none"/>
    <rect x="0" y="2.000" width="0.100" height="0.20" fill="#f7bf13" stroke="none"/>
    <rect x="4.100" y="2.000" width="0.100" height="0.20" fill="#f7bf13" stroke="none"/>
    <rect x="2.400" y="0" width="0.20" height="0.100" fill="#f7bf13" stroke="none"/>
    <rect x="2.400" y="4.100" width="0.20" height="0.100" fill="#f7bf13" stroke="none"/>
    <rect x="0" y="2.400" width="0.100" height="0.20" fill="#f7bf13" stroke="none"/>
    <rect x="4.100" y="2.400" width="0.100" height="0.20" fill="#f7bf13" stroke="none"/>
    <rect x="2.800" y="0" width="0.20" height="0.100" fill="#f7bf13" stroke="none"/>
    <rect x="2.800" y="4.100" width="0.20" height="0.100" fill="#f7bf13" stroke="none"/>
    <rect x="0" y="2.800" width="0.100" height="0.20" fill="#f7bf13" stroke="none"/>
    <rect x="4.100" y="2.800" width="0.100" height="0.20" fill="#f7bf13" stroke="none"/>
    <rect x="3.200" y="0" width="0.20" height="0.100" fill="#f7bf13" stroke="none"/>
    <rect x="3.200" y="4.100" width="0.20" height="0.100" fill="#f7bf13" stroke="none"/>
    <rect x="0" y="3.200" width="0.100" height="0.20" fill="#f7bf13" stroke="none"/>
    <rect x="4.100" y="3.200" width="0.100" height="0.20" fill="#f7bf13" stroke="none"/>
    <circle cx="0.900" cy="3.300" r="0.18" fill="#c0c0c0" stroke="none"/>
    <text x="2.100" y="1.95" font-size="0.62" font-family="DroidSans" fill="#c0c0c0" text-anchor="middle" stroke="none">CH347F</text>
    <text x="2.100" y="2.72" font-size="0.34" font-family="DroidSans" fill="#c0c0c0" text-anchor="middle" stroke="none">QFN28</text>
  </g>
</svg>
