<svg xmlns="http://www.w3.org/2000/svg" width="32mm" height="97.6mm" viewBox="-2.8346 -28.3465 90.7087 276.6614">
  <g id="icon">
<rect x="0" y="0" width="85.0394" height="155.9055" rx="3.9685" fill="#1c1c1e" stroke="#3a3a3c" stroke-width="0.7087"/>
<rect x="21.2598" y="155.3386" width="42.5197" height="51.5906" fill="#1c1c1e" stroke="#3a3a3c" stroke-width="0.7087"/>
<rect x="26.3622" y="187.0866" width="2.5512" height="17.0079" rx="0.4252" fill="#d8a72a" stroke="#8a5d12" stroke-width="0.3402"/>
<rect x="30.6142" y="187.0866" width="2.5512" height="17.0079" rx="0.4252" fill="#d8a72a" stroke="#8a5d12" stroke-width="0.3402"/>
<rect x="34.8661" y="187.0866" width="2.5512" height="17.0079" rx="0.4252" fill="#d8a72a" stroke="#8a5d12" stroke-width="0.3402"/>
<rect x="39.1181" y="187.0866" width="2.5512" height="17.0079" rx="0.4252" fill="#d8a72a" stroke="#8a5d12" stroke-width="0.3402"/>
<rect x="43.3701" y="187.0866" width="2.5512" height="17.0079" rx="0.4252" fill="#d8a72a" stroke="#8a5d12" stroke-width="0.3402"/>
<rect x="47.622" y="187.0866" width="2.5512" height="17.0079" rx="0.4252" fill="#d8a72a" stroke="#8a5d12" stroke-width="0.3402"/>
<rect x="51.874" y="187.0866" width="2.5512" height="17.0079" rx="0.4252" fill="#d8a72a" stroke="#8a5d12" stroke-width="0.3402"/>
<rect x="56.126" y="187.0866" width="2.5512" height="17.0079" rx="0.4252" fill="#d8a72a" stroke="#8a5d12" stroke-width="0.3402"/>
<rect x="22.6772" y="155.3386" width="39.685" height="24.6614" rx="1.7008" fill="#2b2b2e" stroke="#55555a" stroke-width="0.8504"/>
<rect x="24.0945" y="206.9291" width="36.8504" height="37.1339" rx="2.2677" fill="#2b2b2e" stroke="#55555a" stroke-width="0.8504"/>
<rect x="26.9291" y="206.0787" width="31.1811" height="15.3071" rx="1.1339" fill="#2b2b2e" stroke="#55555a" stroke-width="0.7087"/>
<rect x="35.1496" y="0.5669" width="14.7402" height="10.7717" rx="0.9921" fill="#d8a72a" stroke="#8a5d12" stroke-width="0.5669"/>
<rect x="36.5669" y="-25.5118" width="11.9055" height="26.0787" rx="0.8504" fill="#d8a72a" stroke="#8a5d12" stroke-width="0.5669"/>
<line x1="36.9921" y1="-23.811" x2="48.0472" y2="-23.811" stroke="#8a5d12" stroke-width="0.4535" stroke-linecap="round"/>
<line x1="36.9921" y1="-21.685" x2="48.0472" y2="-21.685" stroke="#8a5d12" stroke-width="0.4535" stroke-linecap="round"/>
<line x1="36.9921" y1="-19.5591" x2="48.0472" y2="-19.5591" stroke="#8a5d12" stroke-width="0.4535" stroke-linecap="round"/>
<line x1="36.9921" y1="-17.4331" x2="48.0472" y2="-17.4331" stroke="#8a5d12" stroke-width="0.4535" stroke-linecap="round"/>
<line x1="36.9921" y1="-15.3071" x2="48.0472" y2="-15.3071" stroke="#8a5d12" stroke-width="0.4535" stroke-linecap="round"/>
<line x1="36.9921" y1="-13.1811" x2="48.0472" y2="-13.1811" stroke="#8a5d12" stroke-width="0.4535" stroke-linecap="round"/>
<line x1="36.9921" y1="-11.0551" x2="48.0472" y2="-11.0551" stroke="#8a5d12" stroke-width="0.4535" stroke-linecap="round"/>
<line x1="36.9921" y1="-8.9291" x2="48.0472" y2="-8.9291" stroke="#8a5d12" stroke-width="0.4535" stroke-linecap="round"/>
<line x1="36.9921" y1="-6.8031" x2="48.0472" y2="-6.8031" stroke="#8a5d12" stroke-width="0.4535" stroke-linecap="round"/>
<line x1="36.9921" y1="-4.6772" x2="48.0472" y2="-4.6772" stroke="#8a5d12" stroke-width="0.4535" stroke-linecap="round"/>
<line x1="36.9921" y1="-2.5512" x2="48.0472" y2="-2.5512" stroke="#8a5d12" stroke-width="0.4535" stroke-linecap="round"/>
<rect x="35.5748" y="-27.2126" width="13.8898" height="2.8346" rx="0.5669" fill="#d8a72a" stroke="#8a5d12" stroke-width="0.5669"/>
<circle cx="42.5197" cy="5.9528" r="4.252" fill="#b8b8bc" stroke="#8a5d12" stroke-width="0.4252"/>
<circle cx="42.5197" cy="5.9528" r="2.126" fill="#f2f2f2" stroke="#8a5d12" stroke-width="0.3402"/>
<circle cx="8.2205" cy="10.4882" r="4.8189" fill="#b8b8bc" stroke="#6f6f74" stroke-width="0.5669"/>
<circle cx="76.8189" cy="10.4882" r="4.8189" fill="#b8b8bc" stroke="#6f6f74" stroke-width="0.5669"/>
<rect x="17.5748" y="40.8189" width="48.7559" height="44.2205" rx="1.1339" fill="#3d4a63" stroke="#2a3346" stroke-width="0.5669"/>
<rect x="21.8268" y="44.7874" width="40.252" height="36.2835" rx="0.5669" fill="#f2f2f2" stroke="#c8c8c8" stroke-width="0.5669"/>
<rect x="68.5984" y="56.126" width="15.3071" height="19.2756" rx="1.7008" fill="#b8b8bc" stroke="#7c7c81" stroke-width="0.5669"/>
<text x="30.0472" y="119.0551" font-family="DroidSans" font-size="4.5354" fill="#e8e8e8" transform="rotate(-90 30.0472 119.0551)">T-Halow RJ45</text>
<circle cx="5.3858" cy="33.7323" r="2.5512" fill="#f2f2f2" stroke="#a9a9ad" stroke-width="0.3402"/>
<circle cx="5.3858" cy="40.9323" r="2.5512" fill="#f2f2f2" stroke="#a9a9ad" stroke-width="0.3402"/>
<circle cx="5.3858" cy="48.1323" r="2.5512" fill="#f2f2f2" stroke="#a9a9ad" stroke-width="0.3402"/>
<circle cx="5.3858" cy="55.3323" r="2.5512" fill="#f2f2f2" stroke="#a9a9ad" stroke-width="0.3402"/>
<circle cx="5.3858" cy="62.5323" r="2.5512" fill="#f2f2f2" stroke="#a9a9ad" stroke-width="0.3402"/>
<circle cx="5.3858" cy="69.7323" r="2.5512" fill="#f2f2f2" stroke="#a9a9ad" stroke-width="0.3402"/>
<circle cx="5.3858" cy="76.9323" r="2.5512" fill="#f2f2f2" stroke="#a9a9ad" stroke-width="0.3402"/>
<circle cx="5.3858" cy="84.1323" r="2.5512" fill="#f2f2f2" stroke="#a9a9ad" stroke-width="0.3402"/>
<circle cx="5.3858" cy="91.3323" r="2.5512" fill="#f2f2f2" stroke="#a9a9ad" stroke-width="0.3402"/>
<circle cx="5.3858" cy="98.5323" r="2.5512" fill="#f2f2f2" stroke="#a9a9ad" stroke-width="0.3402"/>
  </g>
</svg>
